<svg id="圖層_1" data-name="圖層 1" xmlns="http://www.w3.org/2000/svg" xmlns:xlink="http://www.w3.org/1999/xlink" viewBox="0 0 1024 512"><defs><style>.cls-1{fill:none;}.cls-2{isolation:isolate;}.cls-3{clip-path:url(#clip-path);}.cls-4{fill:#30a78d;}.cls-5{fill:#e85151;}.cls-6{fill:#e6e6e6;}</style><clipPath id="clip-path"><polygon class="cls-1" points="187.7 476.9 188.3 127 836.2 36 835.5 385.8 187.7 476.9"/></clipPath></defs><title>banner</title><g class="cls-2"><g class="cls-3"><path class="cls-4" d="M308.8,334l-29.6,4.2,20.7-2.9,61.6,117.1,82.1-11.5-64.3,9-8.9,1.3L308.8,334m-2.4-160.7-26.9,3.8,18-2.5c38.5-5.4,59.2,3.3,59.1,37.8-.1,34.2-20.8,55-59.3,60.5l8.9-1.3c38.5-5.4,59.2-26.2,59.3-60.5.1-34.6-20.6-43.2-59.1-37.8M197.2,125.8l-8.9,1.3-.6,349.8,73.5-10.3-55.7,7.8-8.9,1.3.6-349.9"/><path class="cls-4" d="M753.4,251.4l-79,11.1,70.1-9.9-.3,146,73.5-10.3L762,396.1l-8.9,1.3.3-146M592.4,70.2l-8.9,1.3-.6,349.8L656.4,411l-55.7,7.8-8.9,1.3.6-349.9M753.8,47.6l-8.9,1.3-.3,134.7,8.9-1.3.3-134.7"/><path class="cls-5" d="M308.8,334l-38.5,5.4-.2,125.8-64.6,9.1,55.7-7.8L279,464l.2-125.8,29.6-4.2m-2.4-160.7-35.8,5-.2,98.3,8.9-1.3.2-98.3,26.9-3.7m15-65-8.9,1.3c68.7-9.6,125.1,8.2,125,91.4-.1,51.4-23.3,87.3-57.9,109.1l73,129.6L379.4,450l64.3-9,17.8-2.5-73-129.6c34.6-21.7,57.8-57.7,57.9-109.1.1-83.3-56.4-101.1-125-91.5"/><path class="cls-5" d="M753.4,251.4l-87.9,12.4-.3,146-64.6,9.1,55.7-7.8,17.8-2.5.3-146,79-11.2M674.8,58.7,665.9,60l-.3,134.7,8.9-1.3.3-134.7M836.2,36l-8.9,1.3-.6,349.8-64.6,9.1,55.7-7.8,17.8-2.5L836.2,36"/><path class="cls-6" d="M270.4,276.6l.2-98.3,35.8-5c38.5-5.4,59.2,3.3,59.1,37.8-.1,34.2-20.8,55-59.3,60.5l-8.9,1.3-18,2.5-8.9,1.2m42.1-167L197.3,125.8l-.6,349.8,8.9-1.3,64.6-9.1.2-125.8,38.5-5.4,61.6,117.1,8.9-1.3,73.2-10.3-73-129.6c34.6-21.7,57.8-57.7,57.9-109.1.1-83-56.4-100.9-125-91.2"/><polyline class="cls-6" points="827.3 37.2 753.8 47.6 753.5 182.3 744.6 183.5 674.5 193.4 665.6 194.6 665.9 59.9 592.4 70.2 591.7 420.1 600.6 418.8 665.2 409.7 665.5 263.8 753.4 251.4 753.1 397.4 762 396.1 826.6 387.1 827.3 37.2"/></g></g></svg>