<svg id="圖層_1" data-name="圖層 1" xmlns="http://www.w3.org/2000/svg" xmlns:xlink="http://www.w3.org/1999/xlink" viewBox="0 0 1024 512"><defs><style>.cls-1{fill:none;}.cls-2{isolation:isolate;}.cls-3{clip-path:url(#clip-path);}.cls-4{fill:#30a78d;}.cls-5{fill:#e85151;}.cls-6{fill:#e6e6e6;}</style><clipPath id="clip-path"><polygon class="cls-1" points="189.8 485.16 190.45 135.33 838.27 44.28 837.62 394.11 189.8 485.16"/></clipPath></defs><title>Banner</title><g class="cls-2"><g class="cls-3"><path class="cls-4" d="M311,342.32l-29.63,4.17,20.73-2.92,61.64,117.15,82.06-11.53-64.26,9-8.9,1.25L311,342.32M308.5,181.57l-26.88,3.77,18-2.52c38.53-5.42,59.18,3.28,59.12,37.83-.07,34.24-20.77,55-59.3,60.46l8.9-1.25c38.53-5.41,59.23-26.22,59.3-60.46.06-34.55-20.59-43.25-59.12-37.83M199.35,134.08l-8.9,1.25-.65,349.83,73.49-10.33-55.69,7.83-8.9,1.25.65-349.83"/><path class="cls-4" d="M755.5,259.72l-79,11.11L746.6,261l-.27,146,73.49-10.33-55.69,7.83-8.9,1.25.27-146m-161-181.17-8.9,1.25-.65,349.83,73.49-10.33-55.69,7.82-8.9,1.26.65-349.83M755.88,55.86,747,57.11l-.25,134.7,8.9-1.25.25-134.7"/><path class="cls-5" d="M311,342.32l-38.52,5.42-.24,125.84-64.59,9.08,55.69-7.83,17.8-2.5.23-125.84L311,342.32M308.5,181.57l-35.78,5-.18,98.3,8.9-1.25.18-98.3,26.88-3.77m15-64.94-8.9,1.25c68.66-9.65,125.11,8.18,125,91.41-.1,51.4-23.26,87.33-57.9,109.08l73,129.56-73.15,10.29,64.26-9,17.79-2.51-73-129.56c34.64-21.75,57.8-57.68,57.9-109.08.15-83.23-56.3-101.06-125-91.41"/><path class="cls-5" d="M755.5,259.72l-87.92,12.36-.27,146-64.59,9.07,55.69-7.82,17.8-2.5.27-146,79-11.11M676.86,67,668,68.22l-.25,134.69,8.9-1.25L676.86,67M838.27,44.28l-8.9,1.25-.65,349.83-64.59,9.08,55.69-7.83,17.8-2.5.65-349.83"/><path class="cls-6" d="M272.54,284.89l.18-98.3,35.78-5c38.53-5.42,59.18,3.28,59.12,37.83-.07,34.24-20.77,55-59.3,60.46l-8.9,1.25-18,2.53-8.9,1.25m42-167-115.23,16.2-.65,349.83,8.9-1.25,64.59-9.08.24-125.84L311,342.32l61.64,117.15,8.9-1.25,73.15-10.29-73-129.56c34.64-21.75,57.8-57.68,57.9-109.08.15-83.23-56.3-101.06-125-91.41"/><polyline class="cls-6" points="829.37 45.53 755.88 55.86 755.63 190.56 746.73 191.81 676.61 201.66 667.71 202.91 667.96 68.22 594.47 78.55 593.82 428.38 602.72 427.13 667.31 418.05 667.59 272.08 755.5 259.72 755.23 405.69 764.13 404.44 828.72 395.36 829.37 45.53"/></g></g></svg>