<svg id="圖層_1" data-name="圖層 1" xmlns="http://www.w3.org/2000/svg" xmlns:xlink="http://www.w3.org/1999/xlink" viewBox="0 0 512 512"><defs><style>.cls-1,.cls-2{fill:none;}.cls-2{stroke:#30a78d;stroke-miterlimit:10;stroke-width:4px;}.cls-3{isolation:isolate;}.cls-4{clip-path:url(#clip-path);}.cls-5{fill:#30a78d;}.cls-6{fill:#e85151;}.cls-7{fill:#e6e6e6;}.cls-8{clip-path:url(#clip-path-2);}</style><clipPath id="clip-path"><polygon class="cls-1" points="140.5 441.4 141.1 109.5 400.8 73 400.2 404.9 140.5 441.4"/></clipPath><clipPath id="clip-path-2"><rect class="cls-1" x="15.5" y="47.3" width="481.2" height="416.8"/></clipPath></defs><title>Icon</title><polygon class="cls-2" points="256.2 51.3 19 462.1 493.3 462.1 256.2 51.3"/><g class="cls-3"><g class="cls-4"><path class="cls-5" d="M255.4,305.9l-28.1,3.9L247,307l58.5,111.1,77.8-10.9-61,8.6-8.4,1.2L255.4,305.9m-2.3-152.5L227.6,157l17-2.4c36.6-5.1,56.1,3.1,56.1,35.9-.1,32.5-19.7,52.2-56.3,57.4l8.4-1.2c36.6-5.1,56.2-24.9,56.3-57.4.1-32.8-19.5-41.1-56-35.9M149.6,108.3l-8.4,1.2-.6,331.9,69.7-9.8L157.5,439l-8.5,1.2.6-331.9"/><path class="cls-6" d="M255.4,305.9,218.9,311l-.2,119.4L157.4,439l52.8-7.4,16.9-2.4.2-119.4,28.1-3.9m-2.3-152.5-33.9,4.8-.2,93.2,8.4-1.2.2-93.2,25.5-3.6m14.2-61.6L258.9,93c65.1-9.2,118.7,7.8,118.5,86.7-.1,48.8-22.1,82.8-54.9,103.5l69.2,122.9-69.4,9.8,61-8.6,16.9-2.4L331,282c32.9-20.6,54.8-54.7,54.9-103.5.1-79-53.5-95.9-118.6-86.7"/><path class="cls-7" d="M219,251.4l.2-93.2,33.9-4.8c36.6-5.1,56.1,3.1,56.1,35.9-.1,32.5-19.7,52.2-56.3,57.4l-8.4,1.2-17,2.4-8.5,1.1M258.9,93,149.6,108.4,149,440.3l8.5-1.2,61.3-8.6.2-119.4,36.5-5.1L314,417.1l8.4-1.2,69.4-9.8L322.6,283.2c32.9-20.6,54.8-54.7,54.9-103.5.1-79-53.5-95.9-118.6-86.7"/></g></g><g class="cls-3"><g class="cls-8"><path class="cls-6" d="M489.8,51.3,256.2,456.1,22.5,51.3H489.8M256.2,464.1,496.8,47.3H15.5L256.2,464.1"/></g></g></svg>