<svg id="圖層_1" data-name="圖層 1" xmlns="http://www.w3.org/2000/svg" xmlns:xlink="http://www.w3.org/1999/xlink" viewBox="0 0 512 512"><defs><style>.cls-1{fill:none;}.cls-2{isolation:isolate;}.cls-3{clip-path:url(#clip-path);}.cls-4{fill:#30a78d;}.cls-5{fill:#e85151;}.cls-6{fill:#e6e6e6;}</style><clipPath id="clip-path"><polygon class="cls-1" points="126.1 436.9 126.7 105 386.4 68.5 385.8 400.4 126.1 436.9"/></clipPath></defs><title>Icon Clean</title><g class="cls-2"><g class="cls-3"><path class="cls-4" d="M241,301.4l-28.1,3.9,19.7-2.8,58.5,111.1,77.8-10.9-61,8.6-8.4,1.2L241,301.4m-2.3-152.5-25.5,3.6,17-2.4c36.6-5.1,56.1,3.1,56.1,35.9-.1,32.5-19.7,52.2-56.3,57.4l8.4-1.2c36.6-5.1,56.2-24.9,56.3-57.4.1-32.8-19.5-41.1-56-35.9M135.2,103.8l-8.4,1.2-.6,331.9,69.7-9.8-52.8,7.4-8.5,1.2.6-331.9"/><path class="cls-5" d="M241,301.4l-36.5,5.1-.2,119.4L143,434.5l52.8-7.4,16.9-2.4.2-119.4,28.1-3.9m-2.3-152.5-33.9,4.8-.2,93.2,8.4-1.2.2-93.2,25.5-3.6m14.2-61.6-8.4,1.2c65.1-9.2,118.7,7.8,118.5,86.7-.1,48.8-22.1,82.8-54.9,103.5l69.2,122.9-69.4,9.8,61-8.6,16.9-2.4L316.6,277.5c32.9-20.6,54.8-54.7,54.9-103.5.1-79-53.5-95.9-118.6-86.7"/><path class="cls-6" d="M204.6,246.9l.2-93.2,33.9-4.8c36.6-5.1,56.1,3.1,56.1,35.9-.1,32.5-19.7,52.2-56.3,57.4l-8.4,1.2-17,2.4-8.5,1.1M244.5,88.5,135.2,103.9l-.6,331.9,8.5-1.2,61.3-8.6.2-119.4,36.5-5.1,58.5,111.1,8.4-1.2,69.4-9.8L308.2,278.7c32.9-20.6,54.8-54.7,54.9-103.5.1-79-53.5-95.9-118.6-86.7"/></g></g></svg>