<svg id="圖層_1" data-name="圖層 1" xmlns="http://www.w3.org/2000/svg" xmlns:xlink="http://www.w3.org/1999/xlink" viewBox="0 0 512 512"><defs><style>.cls-1,.cls-2{fill:none;}.cls-2{stroke:#30a78d;stroke-miterlimit:10;stroke-width:4px;}.cls-3{isolation:isolate;}.cls-4{clip-path:url(#clip-path);}.cls-5{fill:#30a78d;}.cls-6{fill:#e85151;}.cls-7{fill:#e6e6e6;}.cls-8{clip-path:url(#clip-path-2);}</style><clipPath id="clip-path"><polygon class="cls-1" points="134.21 450.87 134.86 101.04 408.61 62.57 407.96 412.4 134.21 450.87"/></clipPath><clipPath id="clip-path-2"><rect id="SVGID" class="cls-1" x="0.82" y="34.11" width="510.64" height="442.23"/></clipPath></defs><title>Icon</title><polygon class="cls-2" points="256.14 38.12 4.28 474.35 508 474.35 256.14 38.12"/><g class="cls-3"><g class="cls-4"><path class="cls-5" d="M255.36,308l-29.62,4.16,20.72-2.91L308.1,426.43l82.06-11.53-64.26,9-8.9,1.25L255.36,308m-2.45-160.76L226,151.06l18-2.53c38.53-5.41,59.19,3.28,59.12,37.83-.06,34.25-20.77,55-59.3,60.47l8.9-1.25c38.53-5.42,59.24-26.22,59.3-60.47.07-34.55-20.59-43.24-59.12-37.83M143.76,99.79l-8.9,1.25-.65,349.83,73.49-10.33L152,448.37l-8.9,1.25.65-349.83"/><path class="cls-6" d="M255.36,308l-38.52,5.41-.24,125.84L152,448.37l55.69-7.83,17.8-2.5.24-125.84L255.36,308m-2.45-160.76-35.77,5L217,250.6l8.9-1.25.19-98.29,26.87-3.78m15-64.94L259,83.6c68.66-9.66,125.11,8.18,125,91.4-.1,51.4-23.26,87.33-57.9,109.08l73,129.57L325.9,423.93l64.26-9,17.8-2.5L335,282.83c34.64-21.75,57.8-57.68,57.9-109.08.15-83.22-56.3-101.06-125-91.41"/><path class="cls-7" d="M217,250.6l.19-98.29,35.77-5c38.53-5.41,59.19,3.28,59.12,37.83-.06,34.25-20.77,55-59.3,60.47l-8.9,1.25-18,2.52L217,250.6M259,83.6,143.76,99.79l-.65,349.83,8.9-1.25,64.59-9.08.24-125.84L255.36,308,317,425.18l8.9-1.25,73.16-10.28-73-129.57C360.7,262.33,383.86,226.4,384,175c.15-83.22-56.3-101.06-125-91.4"/></g></g><g class="cls-3"><g class="cls-8"><path class="cls-6" d="M504.54,38.11,256.14,468.35,7.75,38.11H504.54M256.14,476.35,511.46,34.11H.82L256.14,476.35"/></g></g></svg>